# xmcd
#
# Track frame offsets:
#	150
#	23229
#	42541
#	59998
#	80580
#	103642
#	127189
#	145543
#	165272
#	187431
#	212953
#	234953
#	250415
#	282044
#
# Disc length: 4432 seconds
#
# Revision: 4
# Processed by: cddbd v1.4PL0 Copyright (c) Steve Scherf et al.
# Submitted via: dBpowerAMP V4.0
#
DISCID=d4114e0e
DTITLE=Dee Dee Bridgewater - Dee Dee Bridgewater CD1
DYEAR=1900
DGENRE=Blues
TTITLE0=Precious Thing
TTITLE1=Angel of the night
TTITLE2=Place in the sun
TTITLE3=Heartache caravan
TTITLE4=On a clear day
TTITLE5=Big Teddy
TTITLE6=Sunset and blue
TTITLE7=Just a feeling
TTITLE8=Just tell me why
TTITLE9=The world turns around
TTITLE10=Mr.Guitar Man
TTITLE11=I go my way
TTITLE12=Love takes chances
TTITLE13=DATA
EXTD=
EXTT0=
EXTT1=
EXTT2=
EXTT3=
EXTT4=
EXTT5=
EXTT6=
EXTT7=
EXTT8=
EXTT9=
EXTT10=
EXTT11=
EXTT12=
EXTT13=
PLAYORDER=
